<?xml version="1.0" encoding="UTF-8"?>
<svg width="240px" height="240px" viewBox="0 0 240 240" version="1.1" xmlns="http://www.w3.org/2000/svg" xmlns:xlink="http://www.w3.org/1999/xlink">
    <!-- Generator: Sketch 3.6 (26304) - http://www.bohemiancoding.com/sketch -->
    <title>Blog</title>
    <desc>Created with Sketch.</desc>
    <defs>
        <radialGradient cx="50%" cy="50%" fx="50%" fy="50%" r="50%" id="radialGradient-1">
            <stop stop-color="#F5515F" offset="0%"></stop>
            <stop stop-color="#9F031B" offset="100%"></stop>
        </radialGradient>
    </defs>
    <g id="Page-1" stroke="none" stroke-width="1" fill="none" fill-rule="evenodd">
        <g id="Widget-Icons" transform="translate(-625.000000, -314.000000)">
            <g id="Blog" transform="translate(625.000000, 314.000000)">
                <rect id="Rectangle" fill="url(#radialGradient-1)" x="0" y="0" width="240" height="240"></rect>
                <path d="M106.669084,24.2909651 C114.031546,20.5008641 125.974511,20.5039819 133.330916,24.2909651 L206.669084,62.0445158 C214.031546,65.8346168 220,75.6227107 220,83.9055336 L220,156.866109 C220,165.149515 214.025489,174.940144 206.669084,178.727127 L133.330916,216.480678 C125.968454,220.270779 114.025489,220.267661 106.669084,216.480678 L33.330916,178.727127 C25.9684544,174.937026 20,165.148932 20,156.866109 L20,83.9055336 C20,75.6221279 25.974511,65.831499 33.330916,62.0445158 L106.669084,24.2909651 Z" id="Polygon" stroke="#FFFFFF" stroke-width="5"></path>
                <g id="Group" transform="translate(70.000000, 77.000000)" stroke-width="4">
                    <rect id="Rectangle-17" stroke="#FFFFFF" x="0" y="0" width="101" height="86"></rect>
                    <rect id="Rectangle-18" stroke="#F7EBE8" transform="translate(50.777473, 12.699482) scale(1, -1) translate(-50.777473, -12.699482) " x="6.65934066" y="9.35751295" width="88.2362637" height="6.68393782"></rect>
                    <rect id="Rectangle-19" stroke="#F7EBE8" x="8.87912088" y="21.8341969" width="37.1813187" height="21.388601"></rect>
                    <path d="M55.4945055,23.1709845 L92.6758242,23.1709845" id="Line" stroke="#F7EBE8" stroke-linecap="square"></path>
                    <path d="M55.4945055,32.9740933 L92.6758242,32.9740933" id="Line-Copy-4" stroke="#F7EBE8" stroke-linecap="square"></path>
                    <path d="M54.9395604,42.7772021 L92.6758242,42.7772021" id="Line-Copy-5" stroke="#F7EBE8" stroke-linecap="square"></path>
                    <path d="M9.98901099,52.5803109 L92.6758242,52.5803109" id="Line-Copy-6" stroke="#F7EBE8" stroke-linecap="square"></path>
                    <path d="M9.98901099,62.3834197 L92.6758242,62.3834197" id="Line-Copy-7" stroke="#F7EBE8" stroke-linecap="square"></path>
                    <path d="M9.98901099,72.1865285 L92.6758242,72.1865285" id="Line-Copy-8" stroke="#F7EBE8" stroke-linecap="square"></path>
                </g>
            </g>
        </g>
    </g>
</svg>