<?xml version="1.0" encoding="UTF-8"?>
<svg width="240px" height="240px" viewBox="0 0 240 240" version="1.1" xmlns="http://www.w3.org/2000/svg" xmlns:xlink="http://www.w3.org/1999/xlink">
    <!-- Generator: Sketch 3.6 (26304) - http://www.bohemiancoding.com/sketch -->
    <title>Portfolio</title>
    <desc>Created with Sketch.</desc>
    <defs>
        <radialGradient cx="50%" cy="50%" fx="50%" fy="50%" r="50%" id="radialGradient-1">
            <stop stop-color="#F5515F" offset="0%"></stop>
            <stop stop-color="#9F031B" offset="100%"></stop>
        </radialGradient>
    </defs>
    <g id="Page-1" stroke="none" stroke-width="1" fill="none" fill-rule="evenodd">
        <g id="Widget-Icons" transform="translate(-625.000000, -1166.000000)">
            <g id="Portfolio" transform="translate(625.000000, 1166.000000)">
                <rect id="Rectangle" fill="url(#radialGradient-1)" x="0" y="0" width="240" height="240"></rect>
                <path d="M106.669084,24.2909651 C114.031546,20.5008641 125.974511,20.5039819 133.330916,24.2909651 L206.669084,62.0445158 C214.031546,65.8346168 220,75.6227107 220,83.9055336 L220,156.866109 C220,165.149515 214.025489,174.940144 206.669084,178.727127 L133.330916,216.480678 C125.968454,220.270779 114.025489,220.267661 106.669084,216.480678 L33.330916,178.727127 C25.9684544,174.937026 20,165.148932 20,156.866109 L20,83.9055336 C20,75.6221279 25.974511,65.831499 33.330916,62.0445158 L106.669084,24.2909651 Z" id="Polygon" stroke="#FFFFFF" stroke-width="5"></path>
                <g id="Group-Copy-6" transform="translate(49.000000, 75.000000)" stroke="#F7EBE8">
                    <rect id="Rectangle" stroke-width="4" x="0" y="17" width="32.8041902" height="29.9655172"></rect>
                    <rect id="Rectangle-Copy" stroke-width="4" x="38" y="17" width="32.8041902" height="29.9655172"></rect>
                    <rect id="Rectangle-Copy-2" stroke-width="4" x="77" y="17" width="32.8041902" height="29.9655172"></rect>
                    <rect id="Rectangle-Copy-3" stroke-width="4" x="115" y="17" width="32.8041902" height="29.9655172"></rect>
                    <rect id="Rectangle-Copy-7" stroke-width="4" x="0" y="53" width="32.8041902" height="29.9655172"></rect>
                    <rect id="Rectangle-Copy-6" stroke-width="4" x="38" y="53" width="32.8041902" height="29.9655172"></rect>
                    <rect id="Rectangle-Copy-5" stroke-width="4" x="77" y="53" width="32.8041902" height="29.9655172"></rect>
                    <rect id="Rectangle-Copy-4" stroke-width="4" x="115" y="53" width="32.8041902" height="29.9655172"></rect>
                    <path d="M32.8305802,0.517241379 L43.0703062,0.517241379" id="Line-Copy-20" stroke-width="3" stroke-linecap="square"></path>
                    <path d="M52.1053586,0.517241379 L62.3450846,0.517241379" id="Line-Copy-15" stroke-width="3" stroke-linecap="square"></path>
                    <path d="M71.380137,0.517241379 L81.619863,0.517241379" id="Line-Copy-16" stroke-width="3" stroke-linecap="square"></path>
                    <path d="M71.380137,0.517241379 L81.619863,0.517241379" id="Line-Copy-17" stroke-width="3" stroke-linecap="square"></path>
                    <path d="M90.6549154,0.517241379 L100.894641,0.517241379" id="Line-Copy-18" stroke-width="3" stroke-linecap="square"></path>
                    <path d="M109.929694,0.517241379 L120.16942,0.517241379" id="Line-Copy-19" stroke-width="3" stroke-linecap="square"></path>
                </g>
            </g>
        </g>
    </g>
</svg>