<?xml version="1.0" encoding="UTF-8"?>
<svg width="240px" height="240px" viewBox="0 0 240 240" version="1.1" xmlns="http://www.w3.org/2000/svg" xmlns:xlink="http://www.w3.org/1999/xlink">
    <!-- Generator: Sketch 3.6 (26304) - http://www.bohemiancoding.com/sketch -->
    <title>Bar Counter</title>
    <desc>Created with Sketch.</desc>
    <defs>
        <radialGradient cx="50%" cy="50%" fx="50%" fy="50%" r="50%" id="radialGradient-1">
            <stop stop-color="#F5515F" offset="0%"></stop>
            <stop stop-color="#9F031B" offset="100%"></stop>
        </radialGradient>
    </defs>
    <g id="Page-1" stroke="none" stroke-width="1" fill="none" fill-rule="evenodd">
        <g id="Widget-Icons" transform="translate(-335.000000, -314.000000)">
            <g id="Bar-Counter" transform="translate(335.000000, 314.000000)">
                <rect id="Rectangle" fill="url(#radialGradient-1)" x="0" y="0" width="240" height="240"></rect>
                <path d="M106.669084,24.2909651 C114.031546,20.5008641 125.974511,20.5039819 133.330916,24.2909651 L206.669084,62.0445158 C214.031546,65.8346168 220,75.6227107 220,83.9055336 L220,156.866109 C220,165.149515 214.025489,174.940144 206.669084,178.727127 L133.330916,216.480678 C125.968454,220.270779 114.025489,220.267661 106.669084,216.480678 L33.330916,178.727127 C25.9684544,174.937026 20,165.148932 20,156.866109 L20,83.9055336 C20,75.6221279 25.974511,65.831499 33.330916,62.0445158 L106.669084,24.2909651 Z" id="Polygon" stroke="#FFFFFF" stroke-width="5"></path>
                <g id="Group" transform="translate(50.000000, 91.000000)" stroke="#F7EBE8" stroke-width="4" stroke-linecap="square">
                    <path d="M0,0.5 L80,0.5" id="Line-Copy-4"></path>
                    <path d="M0,14.5 L117.391304,14.5" id="Line-Copy-5"></path>
                    <path d="M0,29.5 L46.0869565,29.5" id="Line-Copy-9"></path>
                    <path d="M0.869565217,43.5 L85.2173913,43.5" id="Line-Copy-10"></path>
                    <path d="M0.869565217,57.5 L140,57.5" id="Line-Copy-11"></path>
                </g>
            </g>
        </g>
    </g>
</svg>