<?xml version="1.0" encoding="UTF-8"?>
<svg width="240px" height="240px" viewBox="0 0 240 240" version="1.1" xmlns="http://www.w3.org/2000/svg" xmlns:xlink="http://www.w3.org/1999/xlink">
    <!-- Generator: Sketch 3.6 (26304) - http://www.bohemiancoding.com/sketch -->
    <title>Person</title>
    <desc>Created with Sketch.</desc>
    <defs>
        <radialGradient cx="50%" cy="50%" fx="50%" fy="50%" r="50%" id="radialGradient-1">
            <stop stop-color="#F5515F" offset="0%"></stop>
            <stop stop-color="#9F031B" offset="100%"></stop>
        </radialGradient>
    </defs>
    <g id="Page-1" stroke="none" stroke-width="1" fill="none" fill-rule="evenodd">
        <g id="Widget-Icons" transform="translate(-625.000000, -885.000000)">
            <g id="Person" transform="translate(625.000000, 885.000000)">
                <rect id="Rectangle" fill="url(#radialGradient-1)" x="0" y="0" width="240" height="240"></rect>
                <path d="M106.669084,24.2909651 C114.031546,20.5008641 125.974511,20.5039819 133.330916,24.2909651 L206.669084,62.0445158 C214.031546,65.8346168 220,75.6227107 220,83.9055336 L220,156.866109 C220,165.149515 214.025489,174.940144 206.669084,178.727127 L133.330916,216.480678 C125.968454,220.270779 114.025489,220.267661 106.669084,216.480678 L33.330916,178.727127 C25.9684544,174.937026 20,165.148932 20,156.866109 L20,83.9055336 C20,75.6221279 25.974511,65.831499 33.330916,62.0445158 L106.669084,24.2909651 Z" id="Polygon" stroke="#FFFFFF" stroke-width="5"></path>
                <g id="Group" transform="translate(83.000000, 75.000000)" stroke="#F7EBE8" stroke-width="4">
                    <path d="M37,60.7587938 C47.8182836,60.7587938 56.5882353,40.1474275 56.5882353,21.4641441 C56.5882353,2.78086059 47.8182836,0 37,0 C26.1817164,0 17.4117647,2.78086059 17.4117647,21.4641441 C17.4117647,40.1474275 26.1817164,60.7587938 37,60.7587938 Z" id="Oval-6"></path>
                    <path d="M24.2132353,50.8823529 C24.2132353,50.8823529 7.58998465,59.2209843 3.36413416,65.8660563 C-0.390407506,71.7700039 0.272058824,88.5294118 0.272058824,88.5294118" id="Line" stroke-linecap="square"></path>
                    <path d="M73.7279412,50.8823529 C73.7279412,50.8823529 57.1046905,59.2209843 52.87884,65.8660563 C49.1242984,71.7700039 49.7867647,88.5294118 49.7867647,88.5294118" id="Line-Copy-3" stroke-linecap="square" transform="translate(61.734817, 69.705882) scale(-1, 1) translate(-61.734817, -69.705882) "></path>
                    <path d="M0.272058824,89.4117647 L73.4558824,89.4117647" id="Line" stroke-linecap="square"></path>
                </g>
            </g>
        </g>
    </g>
</svg>