<?xml version="1.0" encoding="UTF-8"?>
<svg width="240px" height="240px" viewBox="0 0 240 240" version="1.1" xmlns="http://www.w3.org/2000/svg" xmlns:xlink="http://www.w3.org/1999/xlink">
    <!-- Generator: Sketch 3.6 (26304) - http://www.bohemiancoding.com/sketch -->
    <title>Slider</title>
    <desc>Created with Sketch.</desc>
    <defs>
        <radialGradient cx="50%" cy="50%" fx="50%" fy="50%" r="50%" id="radialGradient-1">
            <stop stop-color="#F5515F" offset="0%"></stop>
            <stop stop-color="#9F031B" offset="100%"></stop>
        </radialGradient>
    </defs>
    <g id="Page-1" stroke="none" stroke-width="1" fill="none" fill-rule="evenodd">
        <g id="Widget-Icons" transform="translate(-1205.000000, -24.000000)">
            <g id="Slider" transform="translate(1205.000000, 24.000000)">
                <rect id="Rectangle" fill="url(#radialGradient-1)" x="0" y="0" width="240" height="240"></rect>
                <path d="M106.669084,24.2909651 C114.031546,20.5008641 125.974511,20.5039819 133.330916,24.2909651 L206.669084,62.0445158 C214.031546,65.8346168 220,75.6227107 220,83.9055336 L220,156.866109 C220,165.149515 214.025489,174.940144 206.669084,178.727127 L133.330916,216.480678 C125.968454,220.270779 114.025489,220.267661 106.669084,216.480678 L33.330916,178.727127 C25.9684544,174.937026 20,165.148932 20,156.866109 L20,83.9055336 C20,75.6221279 25.974511,65.831499 33.330916,62.0445158 L106.669084,24.2909651 Z" id="Polygon" stroke="#FFFFFF" stroke-width="5"></path>
                <g id="Group" transform="translate(54.000000, 76.000000)" stroke="#FFFFFF">
                    <rect id="Mask" stroke-width="4" x="8" y="0" width="116" height="77"></rect>
                    <path d="M99.1428571,77 L16.2857143,77 L57.7142857,31.5 L57.7142857,31.5 C57.7142857,31.5 75.8240452,51.3895117 84.8789249,61.3342675" id="Triangle-1" stroke-width="4"></path>
                    <ellipse id="Oval-7" stroke-width="4" cx="97.0714286" cy="26.25" rx="10.3571429" ry="8.75"></ellipse>
                    <path d="M107.428571,75.25 C107.428571,66.5515152 99.08188,59.5 88.7857143,59.5 C78.4895486,59.5 70.1428571,66.5515152 70.1428571,75.25" id="Oval-8" stroke-width="4"></path>
                    <rect id="Rectangle-72" stroke-width="3" x="121" y="6" width="11" height="65" rx="3"></rect>
                    <rect id="Rectangle-72-Copy" stroke-width="3" x="0" y="6" width="11" height="65" rx="3"></rect>
                </g>
            </g>
        </g>
    </g>
</svg>