<?xml version="1.0" encoding="UTF-8"?>
<svg width="240px" height="240px" viewBox="0 0 240 240" version="1.1" xmlns="http://www.w3.org/2000/svg" xmlns:xlink="http://www.w3.org/1999/xlink">
    <!-- Generator: Sketch 3.6 (26304) - http://www.bohemiancoding.com/sketch -->
    <title>Testimonial</title>
    <desc>Created with Sketch.</desc>
    <defs>
        <radialGradient cx="50%" cy="50%" fx="50%" fy="50%" r="50%" id="radialGradient-1">
            <stop stop-color="#F5515F" offset="0%"></stop>
            <stop stop-color="#9F031B" offset="100%"></stop>
        </radialGradient>
    </defs>
    <g id="Page-1" stroke="none" stroke-width="1" fill="none" fill-rule="evenodd">
        <g id="Widget-Icons" transform="translate(-45.000000, -1166.000000)">
            <g id="Testimonial" transform="translate(45.000000, 1166.000000)">
                <rect id="Rectangle" fill="url(#radialGradient-1)" x="0" y="0" width="240" height="240"></rect>
                <path d="M106.669084,24.2909651 C114.031546,20.5008641 125.974511,20.5039819 133.330916,24.2909651 L206.669084,62.0445158 C214.031546,65.8346168 220,75.6227107 220,83.9055336 L220,156.866109 C220,165.149515 214.025489,174.940144 206.669084,178.727127 L133.330916,216.480678 C125.968454,220.270779 114.025489,220.267661 106.669084,216.480678 L33.330916,178.727127 C25.9684544,174.937026 20,165.148932 20,156.866109 L20,83.9055336 C20,75.6221279 25.974511,65.831499 33.330916,62.0445158 L106.669084,24.2909651 Z" id="Polygon" stroke="#FFFFFF" stroke-width="5"></path>
                <g id="Group" transform="translate(67.000000, 67.000000)" stroke="#F7EBE8" stroke-width="4">
                    <path d="M52.4033149,91.2254219 C58.0571887,91.2254219 62.640559,81.2217368 62.640559,72.1538428 C62.640559,63.0859488 58.0571887,61.7362637 52.4033149,61.7362637 C46.7494411,61.7362637 42.1660708,63.0859488 42.1660708,72.1538428 C42.1660708,81.2217368 46.7494411,91.2254219 52.4033149,91.2254219 Z" id="Oval-6"></path>
                    <path d="M45.7206695,86.4319112 C45.7206695,86.4319112 37.0329918,90.4790492 34.8244691,93.7042215 C32.8622628,96.5696905 33.2084823,104.703835 33.2084823,104.703835" id="Line" stroke-linecap="square"></path>
                    <path d="M71.5981475,86.4319112 C71.5981475,86.4319112 62.9104699,90.4790492 60.7019472,93.7042215 C58.7397408,96.5696905 59.0859604,104.703835 59.0859604,104.703835" id="Line-Copy-3" stroke-linecap="square" transform="translate(65.330276, 95.567873) scale(-1, 1) translate(-65.330276, -95.567873) "></path>
                    <path d="M33.2084823,105.132084 L71.4559636,105.132084" id="Line" stroke-linecap="square"></path>
                    <path d="M63.2140578,44.9410319 C86.861223,42.7749046 104.61326,33.6465134 104.61326,22.7142857 C104.61326,10.1695321 81.2380712,0 52.4033149,0 C23.5685586,0 0.193370166,10.1695321 0.193370166,22.7142857 C0.193370166,33.6465134 17.9454069,42.7749046 41.5925721,44.9410319 L52.4033149,51.8351648 L63.2140578,44.9410319 Z" id="Oval-8"></path>
                    <polygon id="Star-1" points="29.0567111 26.3543956 24.7944561 28.4241303 25.6084744 24.0403619 22.1602377 20.9357598 26.9255836 20.2961766 29.0567111 16.3076923 31.1878386 20.2961766 35.9531844 20.9357598 32.5049478 24.0403619 33.318966 28.4241303 "></polygon>
                    <polygon id="Star-2" points="52.261131 26.3543956 47.998876 28.4241303 48.8128943 24.0403619 45.3646576 20.9357598 50.1300035 20.2961766 52.261131 16.3076923 54.3922584 20.2961766 59.1576043 20.9357598 55.7093677 24.0403619 56.5233859 28.4241303 "></polygon>
                    <polygon id="Star-3" points="75.4655509 26.3543956 71.2032959 28.4241303 72.0173142 24.0403619 68.5690775 20.9357598 73.3344234 20.2961766 75.4655509 16.3076923 77.5966783 20.2961766 82.3620242 20.9357598 78.9137875 24.0403619 79.7278058 28.4241303 "></polygon>
                </g>
            </g>
        </g>
    </g>
</svg>